<svg xmlns="http://www.w3.org/2000/svg"  width="266.66272mm" height="49.095871mm" viewBox="0 0 266.66272 49.095871" version="1.1">
  <g transform="translate(210.95041,-322.85681)">
    <g transform="translate(1.0000024,-0.9999966)">
      <path  d="m -186.31769,371.0531 c -1.11125,0.13229 -2.2225,0.21167 -3.30729,0.26458 l 0.89958,-8.54604 c 1.03187,-0.0529 2.06375,-0.15875 3.09562,-0.34396 z m 5.63562,-1.21708 c -0.97896,0.29104 -1.95791,0.52916 -2.96333,0.74083 l -0.71438,-8.41375 c 0.92605,-0.21167 1.82563,-0.44979 2.72521,-0.74083 z m 6.16479,-2.3548 c -0.9525,0.4498 -1.93145,0.87313 -2.91041,1.24355 l -2.69875,-7.85813 c 0.89958,-0.34396 1.79916,-0.74083 2.67229,-1.16417 z m 5.79438,-3.28083 c -0.87313,0.58208 -1.77271,1.13771 -2.69875,1.66688 l -4.60375,-6.90563 c 0.84667,-0.47625 1.66687,-1.00542 2.48708,-1.53458 z m 5.10646,-4.07458 c -0.74084,0.68791 -1.50813,1.34937 -2.30188,2.01083 l -6.29708,-5.66208 c 0.76729,-0.58209 1.48167,-1.19063 2.16958,-1.82563 z m 4.10104,-4.55084 c -0.58208,0.7673 -1.16417,1.48167 -1.82563,2.2225 l -7.64645,-4.20687 c 0.635,-0.66146 1.21708,-1.32292 1.74625,-2.01083 z m 2.98979,-4.81541 c -0.37042,0.76729 -0.79375,1.53458 -1.27,2.30187 l -8.5725,-2.64583 c 0.47625,-0.68792 0.92604,-1.40229 1.29646,-2.11667 z m 1.74625,-4.68313 c -0.18521,0.68792 -0.39687,1.37584 -0.635,2.06375 l -9.02229,-1.11125 c 0.29104,-0.635 0.52917,-1.29646 0.71437,-1.93146 z m 0.55563,-3.54541 c -0.0265,0.3175 -0.0529,0.60854 -0.0794,0.92604 l -9.07521,0.29104 c 0.0529,-0.29104 0.13229,-0.58208 0.15875,-0.89958 0.0529,-0.3175 0.0794,-0.635 0.10584,-0.9525 l 8.91645,-0.37042 c 0,0.3175 0,0.66146 -0.0264,1.00542 m -0.42334,-5.05355 c 0.13229,0.50271 0.21167,1.03188 0.29104,1.56105 l -8.73125,1.50812 c -0.0265,-0.52917 -0.0529,-1.03187 -0.15875,-1.53458 z m -1.37583,-3.59833 c 0.23812,0.42333 0.44979,0.87313 0.66146,1.34938 l -8.14917,2.48708 c -0.13229,-0.47625 -0.3175,-0.92604 -0.50271,-1.34938 z m -2.19604,-3.01625 c 0.3175,0.34396 0.635,0.71438 0.92604,1.11125 l -7.32896,3.25438 c -0.23812,-0.39688 -0.52917,-0.79375 -0.79375,-1.13771 z m -2.75167,-2.32833 c 0.37042,0.23812 0.71438,0.50271 1.05833,0.76729 l -6.40291,3.81 c -0.29104,-0.29104 -0.60854,-0.58208 -0.9525,-0.82021 z m -3.25437,-1.77271 c 0.42333,0.18521 0.79375,0.37042 1.19062,0.55562 l -5.3975,4.18042 c -0.37042,-0.21167 -0.74083,-0.42333 -1.13771,-0.60854 z m -3.59834,-1.16417 c 0.44979,0.10584 0.87313,0.21167 1.29646,0.34396 l -4.36562,4.36563 c -0.42334,-0.15875 -0.84667,-0.29105 -1.27,-0.42334 z m -3.75708,-0.60854 c 0.42333,0.0529 0.82021,0.0794 1.21708,0.13229 l -3.36021,4.41854 c -0.39687,-0.0794 -0.79375,-0.13229 -1.21708,-0.1852 z m -3.94229,-0.10583 c 0.42333,-0.0265 0.82021,-0.0265 1.24354,-0.0265 l -2.35479,4.36562 c -0.42334,-0.0265 -0.84667,-0.0265 -1.27,0 z m -3.91584,0.37041 c 0.21167,-0.0265 0.4498,-0.0794 0.68792,-0.10583 0.13229,-0.0265 0.26458,-0.0265 0.39688,-0.0529 l -1.4023,4.20688 c -0.13229,0 -0.29104,0.0265 -0.42333,0.0529 l -0.71437,0.0794 z m -3.9952,0.82021 c 0.37041,-0.0794 0.71437,-0.18521 1.08479,-0.26458 l -0.50271,3.96875 c -0.39688,0.0794 -0.76729,0.15875 -1.13771,0.26458 z m -3.83646,1.21709 c 0.29104,-0.10584 0.60854,-0.21167 0.89958,-0.3175 l 0.37042,3.6777 -0.9525,0.3175 z m -3.81,1.61395 c 0.29104,-0.13229 0.58208,-0.29104 0.87312,-0.42333 l 1.21709,3.33375 c -0.3175,0.13229 -0.60855,0.29104 -0.92605,0.42333 z m -3.62479,1.98438 c 0.26458,-0.15875 0.55562,-0.34396 0.8202,-0.50271 l 1.98438,2.88396 c -0.29104,0.18521 -0.58208,0.34396 -0.87313,0.52917 z m -3.38667,2.30187 c 0.26458,-0.1852 0.50271,-0.37041 0.76729,-0.55562 l 2.75167,2.40771 c -0.26459,0.21166 -0.52917,0.39687 -0.79375,0.60854 z m -3.14854,2.61938 0.71437,-0.635 3.4925,1.85208 c -0.23812,0.21167 -0.50271,0.44979 -0.74083,0.66146 z m -2.80459,2.88396 0.635,-0.71438 4.18042,1.24354 c -0.21167,0.23813 -0.42333,0.50271 -0.635,0.74084 z m -2.43416,3.12208 c 0.18521,-0.26458 0.34396,-0.50271 0.52916,-0.76729 l 4.81542,0.55562 c -0.18521,0.26459 -0.34396,0.52917 -0.52917,0.79375 z m -1.95792,3.28083 c 0.10583,-0.21166 0.23813,-0.44979 0.34396,-0.66145 l 5.42396,-0.18521 c -0.10584,0.23812 -0.21167,0.44979 -0.3175,0.68791 z m -1.48167,3.51896 c 0.0794,-0.23812 0.15875,-0.47625 0.23813,-0.68791 l 5.92667,-1.03188 c -0.0794,0.23813 -0.1323,0.47625 -0.21167,0.71438 z m -0.84666,3.62479 c 0.0265,-0.23812 0.0794,-0.47625 0.10583,-0.71437 l 6.32354,-1.95792 c -0.0265,0.23813 -0.0529,0.47625 -0.0529,0.71438 z m -0.15875,3.57188 c -0.0265,-0.18521 -0.0265,-0.37042 -0.0265,-0.55563 l 6.61458,-2.93687 0.0794,0.55562 z m 0.60854,3.59833 -0.15875,-0.55562 6.69396,-3.99521 c 0.0529,0.18521 0.13229,0.34396 0.21166,0.52917 z m 1.45521,3.30729 c -0.0794,-0.13229 -0.15875,-0.26458 -0.21167,-0.39687 l 6.56167,-5.08 c 0.0794,0.10583 0.15875,0.23812 0.26458,0.34396 z m 2.38125,3.06917 -0.34396,-0.34396 6.11187,-6.13833 c 0.10584,0.10583 0.23813,0.18521 0.37042,0.29104 z m 3.25437,2.48708 -0.29104,-0.1852 5.26521,-7.1173 c 0.10583,0.0529 0.21167,0.10584 0.29104,0.15875 z" class="st0" />
      <path  d="m -199.07061,370.12706 -0.3175,-0.10584 4.04813,-7.9375 0.29104,0.10584 z" class="st0" />
      <path  d="m -194.41394,371.10602 c -0.42334,-0.0529 -0.87313,-0.10584 -1.27,-0.18521 l 2.91041,-8.30792 c 0.39688,0.0529 0.82021,0.10583 1.21709,0.13229 0.68791,0.0529 1.37583,0.0529 2.06375,0.0529 l -2.75167,8.51958 c -0.74083,-0.0529 -1.48167,-0.10583 -2.16958,-0.21166" class="st0" />
      <path  d="m -198.01228,361.10477 c 0.52917,0.26458 1.05834,0.5027 1.66688,0.71437 l 3.25437,-5.21229 c -0.58208,-0.15875 -1.08479,-0.37042 -1.5875,-0.60854 z m -2.43416,-1.64042 c 0.34396,0.29104 0.74083,0.58208 1.13771,0.84667 l 4.02166,-4.60375 c -0.42333,-0.21167 -0.74083,-0.39688 -1.11125,-0.68792 z m -1.93146,-1.87854 c 0.26458,0.34396 0.52917,0.68791 0.82021,1.03187 l 4.60375,-3.94229 c -0.3175,-0.29104 -0.635,-0.58208 -0.89959,-0.89958 z m -1.32292,-2.27542 c 0.15875,0.39688 0.3175,0.76729 0.52917,1.13771 l 4.92125,-3.25438 c -0.23813,-0.34395 -0.42333,-0.71437 -0.58208,-1.08479 z m -0.68791,-2.61937 c 0.0529,0.42333 0.13229,0.8202 0.21166,1.21708 l 5.02709,-2.54 c -0.1323,-0.39688 -0.23813,-0.79375 -0.29105,-1.19063 z m -0.0265,-2.61938 c -0.0529,0.42333 -0.0529,0.84667 -0.0529,1.27 l 4.94771,-1.79917 c -0.0265,-0.42333 -0.0529,-0.8202 -0.0265,-1.24354 z m 0.50271,-2.72521 c -0.1323,0.42334 -0.21167,0.84667 -0.3175,1.27 l 4.7625,-1.08479 c 0.0529,-0.42333 0.13229,-0.84667 0.23812,-1.27 z m 0.92604,-2.59291 c -0.18521,0.37041 -0.34396,0.76729 -0.47625,1.1377 l 4.41854,-0.37041 c 0.13229,-0.39688 0.26458,-0.76729 0.44979,-1.16417 z m 1.00541,-1.98438 c -0.10583,0.18521 -0.21166,0.34396 -0.29104,0.52917 l 4.02167,0.23812 c 0.0794,-0.18521 0.18521,-0.37041 0.29104,-0.52916 0.10583,-0.18521 0.23813,-0.39688 0.34396,-0.58209 l -4.02167,-0.21166 c -0.10583,0.1852 -0.21166,0.37041 -0.34396,0.55562 m 2.19605,-3.09562 c -0.26459,0.3175 -0.50271,0.60854 -0.74084,0.92604 l 3.54542,0.82021 c 0.23812,-0.34396 0.47625,-0.66146 0.74083,-0.97896 z m 2.11666,-2.24896 c -0.29104,0.29104 -0.58208,0.55562 -0.87312,0.87312 l 3.01625,1.32292 c 0.29104,-0.3175 0.58208,-0.60854 0.87312,-0.89958 z m 2.40771,-2.03729 c -0.3175,0.23812 -0.66146,0.5027 -0.97896,0.76729 l 2.46063,1.79916 c 0.34396,-0.26458 0.66146,-0.55562 1.00541,-0.79375 z m 2.56646,-1.77271 c -0.3175,0.18521 -0.635,0.39687 -0.9525,0.60854 l 1.85208,2.2225 c 0.3175,-0.21167 0.635,-0.42333 0.97896,-0.635 z m 2.83104,-1.53459 c -0.34396,0.15875 -0.66146,0.34396 -1.00542,0.50271 l 1.21709,2.56646 c 0.34396,-0.18521 0.68791,-0.37042 1.05833,-0.52917 z m 2.93688,-1.27 c -0.34396,0.1323 -0.71438,0.26459 -1.05834,0.39688 l 0.52917,2.88396 c 0.34396,-0.15875 0.71437,-0.29104 1.08479,-0.42334 z m 2.98979,-0.89958 c -0.3175,0.0794 -0.635,0.15875 -0.9525,0.26458 l -0.15875,3.12209 c 0.3175,-0.0794 0.66146,-0.18521 1.00541,-0.26459 z m 3.09562,-0.60854 c -0.3175,0.0529 -0.635,0.0794 -0.9525,0.15875 l -0.87312,3.30729 c 0.34396,-0.0529 0.66146,-0.10583 1.00541,-0.13229 z m 2.98979,-0.23813 c -0.15875,0 -0.34395,0 -0.52916,0.0265 -0.10584,0 -0.21167,0 -0.3175,0.0265 l -1.5875,3.41313 h 0.84666 z m 3.01625,0.15875 -0.79375,-0.0794 -2.32833,3.43958 c 0.29104,0.0265 0.52917,0.0529 0.82021,0.10584 z m 2.77813,0.55563 c -0.21167,-0.0529 -0.42333,-0.10583 -0.66146,-0.18521 l -3.04271,3.38667 c 0.21167,0.0529 0.42334,0.13229 0.635,0.18521 z m 2.61937,0.97896 c -0.1852,-0.0794 -0.39687,-0.18521 -0.58208,-0.26459 l -3.81,3.22792 c 0.18521,0.10583 0.39688,0.18521 0.55563,0.29104 z m 2.32834,1.45521 c -0.15875,-0.1323 -0.3175,-0.26459 -0.50271,-0.37042 l -4.47146,2.96333 0.47625,0.39688 z m 1.905,1.7727 -0.39688,-0.47625 -5.10646,2.56646 c 0.1323,0.15875 0.23813,0.3175 0.37042,0.50271 z m 1.37583,2.27542 c -0.0794,-0.18521 -0.18521,-0.39687 -0.26458,-0.58208 l -5.60917,2.03729 c 0.0794,0.18521 0.15875,0.39687 0.21167,0.58208 z m 0.76729,2.72521 c -0.0265,-0.21167 -0.0794,-0.44979 -0.13229,-0.66146 l -5.97958,1.37583 c 0.0265,0.21167 0.0529,0.4498 0.0794,0.66146 z m 0.10584,2.93687 c 0.0265,-0.23812 0.0529,-0.47625 0.0529,-0.74083 l -6.19125,0.58208 c -0.0265,0.23813 -0.0529,0.47625 -0.10583,0.71438 z m -0.635,3.20146 c 0.0794,-0.21166 0.13229,-0.42333 0.1852,-0.635 l -6.13833,-0.3175 c -0.0794,0.21167 -0.15875,0.42334 -0.23812,0.60854 z m -1.34938,3.20146 c 0.13229,-0.21167 0.23813,-0.42333 0.34396,-0.66146 l -5.87375,-1.27 c -0.10583,0.21167 -0.23813,0.42334 -0.37042,0.635 z m -2.27542,3.36021 c 0.15875,-0.21167 0.34396,-0.42333 0.50271,-0.635 l -5.34458,-2.30188 c -0.15875,0.21167 -0.34396,0.39688 -0.50271,0.60855 z m -2.83104,3.06917 c 0.18521,-0.15875 0.34396,-0.3175 0.50271,-0.47625 l -4.55083,-3.25438 c -0.15875,0.15875 -0.3175,0.29104 -0.50271,0.42333 z m -3.51896,2.7252 c 0.21167,-0.13229 0.39688,-0.26458 0.58209,-0.39687 l -3.51896,-4.1275 c -0.18521,0.13229 -0.37042,0.23812 -0.55563,0.37042 z m -3.83645,2.3548 c 0.15875,-0.0794 0.3175,-0.15875 0.5027,-0.23813 l -2.32833,-4.86833 c -0.15875,0.0794 -0.3175,0.15875 -0.47625,0.21166 z m -4.39209,1.64041 c 0.15875,-0.0529 0.34396,-0.10583 0.50271,-0.15875 l -1.00542,-5.37104 -0.47625,0.15875 z m -3.99521,0.97896 0.34396,-0.0529 0.34396,-5.63562 c -0.10583,0.0265 -0.21167,0.0265 -0.3175,0.0529 z" class="st1" />
      <path  d="m -189.54561,362.82456 0.3175,-0.0265 1.64042,-5.68854 -0.3175,0.0265 z" class="st1" />
      <path  d="m -192.79998,362.63935 2.51354,-5.55625 c -0.29104,-0.0265 -0.58209,-0.0529 -0.84667,-0.10583 -0.44979,-0.0529 -0.76729,-0.10584 -1.19062,-0.21167 l -2.75167,5.3975 c 0.42333,0.10583 1.98437,0.42333 2.27542,0.47625" class="st1" />
      <path  d="m -143.11123,343.58935 h 9.86895 v 27.72833 h -9.86895 z" class="st1" />
      <path  d="m -130.01436,345.99706 c 4.84188,-1.82563 9.47208,-2.96334 14.71083,-2.96334 11.05959,0 15.13417,5.05355 15.13417,13.86417 v 14.41979 h -10.00125 v -14.41979 c 0,-6.50875 -1.42875,-8.44021 -5.13292,-8.44021 -1.79916,0 -3.51895,0.34396 -4.84187,0.635 v 22.225 h -9.86896 z m 46.99,-2.91042 c 9.233958,0 14.684375,4.25979 14.684375,13.94354 0,9.63084 -3.01625,14.81667 -14.684375,14.81667 -11.535833,0 -14.9225,-4.52438 -14.9225,-14.89604 0,-9.81604 4.841875,-13.86417 14.9225,-13.86417 z m 6.35,13.91708 c 0,-7.09083 -2.460625,-9.26041 -6.35,-9.26041 -4.894792,0 -6.588125,1.5875 -6.588125,9.15458 0,8.06979 1.11125,10.23938 6.588125,10.23938 5.3975,0.0265 6.35,-2.54 6.35,-10.13355" class="st1" />
      <path  d="m -62.54561,343.58935 7.223125,20.84917 h 0.555625 l 7.3025,-20.84917 h 6.958541 l -10.583333,27.72833 h -7.990417 l -10.424583,-27.72833 z" class="st1" />
      <path  d="m -15.026444,343.72164 h -4.392083 l -0.635,1.48167 c -2.116667,-1.34938 -4.841875,-1.98438 -8.122709,-1.98438 -9.128125,0 -13.387916,3.78354 -13.387916,13.78479 0,10.76855 2.963333,14.94896 13.387916,14.94896 3.466042,0 6.085417,-0.52916 8.016875,-1.61396 v 0.9525 h 5.106459 v -27.56958 z m -13.123333,25.00313 c -6.799792,0 -8.149167,-2.91042 -8.149167,-11.72105 0,-8.4402 2.196042,-10.55687 8.149167,-10.55687 4.92125,0 7.911041,2.69875 7.911041,10.66271 -0.02646,8.20208 -1.164166,11.61521 -7.911041,11.61521 z m 20.8756244,-35.71875 c -1.3758333,1.00541 -2.8310414,1.87854 -4.2597914,2.61937 l -0.211667,0.10583 v 35.58646 h 5.1064584 v -38.78791 z m 15.7162498,10.18645 c 8.0697918,0 12.5677078,3.96875 12.5677078,13.91709 0,10.08062 -2.434166,14.81666 -12.5677078,14.81666 -10.1335415,0 -12.8322915,-4.10104 -12.8322915,-14.9225 0,-10.10708 3.94229165,-13.81125 12.8322915,-13.81125 z m 8.2549998,13.91709 c 0,-7.80521 -3.175,-10.66271 -8.2814581,-10.66271 -6.0854166,0 -8.51958322,2.35479 -8.51958322,10.55687 0,8.49313 1.42875002,11.64167 8.51958322,11.64167 7.0908331,0 8.2814581,-3.65125 8.2814581,-11.53583 m 30.188958,-0.26459 c 0,-9.3927 -3.201458,-13.75833 -12.038541,-13.75833 -4.021667,0 -7.328959,0.76729 -11.615209,2.40771 v 25.84979 h 3.598334 v -24.28875 c 2.831041,-0.89958 5.609166,-1.37583 8.016875,-1.37583 5.979583,0 8.307916,3.20146 8.307916,11.45646 v 14.20812 h 3.730625 z m 6.561667,-11.35062 c -0.15875,0.39687 -0.396875,0.74083 -0.687917,1.00542 -0.291042,0.29104 -0.635,0.5027 -1.031875,0.66145 -0.396875,0.15875 -0.820208,0.23813 -1.27,0.23813 -0.449792,0 -0.873125,-0.0794 -1.27,-0.23813 -0.396875,-0.15875 -0.740833,-0.37041 -1.031875,-0.66145 -0.291042,-0.29105 -0.502708,-0.60855 -0.687917,-1.00542 -0.15875,-0.39688 -0.238125,-0.84667 -0.238125,-1.32292 0,-0.47625 0.07937,-0.92604 0.238125,-1.32291 0.15875,-0.39688 0.396875,-0.74084 0.687917,-1.00542 0.291042,-0.29104 0.635,-0.50271 1.031875,-0.66146 0.396875,-0.15875 0.820208,-0.23812 1.27,-0.23812 0.449792,0 0.873125,0.0794 1.27,0.23812 0.396875,0.15875 0.740833,0.37042 1.031875,0.66146 0.291042,0.29104 0.502708,0.635 0.687917,1.00542 0.15875,0.39687 0.238125,0.84666 0.238125,1.32291 0.02646,0.50271 -0.05292,0.9525 -0.238125,1.32292 m -0.396875,-2.46063 c -0.132292,-0.34395 -0.343959,-0.635 -0.582084,-0.87312 -0.238125,-0.23813 -0.555625,-0.44979 -0.873125,-0.58208 -0.343958,-0.1323 -0.714375,-0.21167 -1.11125,-0.21167 -0.396875,0 -0.767291,0.0794 -1.11125,0.21167 -0.343958,0.13229 -0.635,0.3175 -0.873125,0.58208 -0.238125,0.23812 -0.449791,0.52917 -0.582083,0.87312 -0.132292,0.34396 -0.211667,0.71438 -0.211667,1.13771 0,0.42334 0.07937,0.79375 0.211667,1.13771 0.132292,0.34396 0.343958,0.635 0.582083,0.89958 0.238125,0.23813 0.555625,0.4498 0.873125,0.58209 0.343959,0.13229 0.714375,0.21166 1.11125,0.21166 0.396875,0 0.767292,-0.0794 1.11125,-0.21166 0.343959,-0.13229 0.635,-0.3175 0.873125,-0.58209 0.238125,-0.23812 0.449792,-0.55562 0.582084,-0.89958 0.132291,-0.34396 0.211666,-0.71437 0.211666,-1.13771 0,-0.39687 -0.07937,-0.79375 -0.211666,-1.13771 m -1.375834,1.00542 c -0.15875,0.18521 -0.343958,0.29104 -0.608541,0.34396 l 0.79375,1.53458 h -0.555625 l -0.767292,-1.48166 h -0.767292 v 1.48166 h -0.47625 v -3.57187 h 1.455209 c 0.3175,0 0.582083,0.0794 0.820208,0.23812 0.211667,0.15875 0.3175,0.42334 0.3175,0.76729 0.02646,0.29105 -0.05292,0.50271 -0.211667,0.68792 m -0.423333,-1.11125 c -0.132292,-0.10583 -0.291042,-0.15875 -0.529167,-0.15875 h -0.9525 v 1.21708 h 0.899584 c 0.502708,0 0.740833,-0.21166 0.740833,-0.60854 0.02646,-0.21166 -0.02646,-0.34396 -0.15875,-0.44979" class="st1" />
      <path  d="M -210.9504,324.85685 H 53.712305 v 47.09583 H -210.9504 Z" class="st2" />
    </g>
  </g>
  <style >.st0{fill:#ffffff}.st1{fill:#ffffff}.st2{fill:none}</style>
</svg>